<svg id="wave" style="transform:rotate(0deg); transition: 0.3s" viewBox="0 0 1440 230" version="1.1" xmlns="http://www.w3.org/2000/svg"><defs><linearGradient id="sw-gradient-0" x1="0" x2="0" y1="1" y2="0"><stop stop-color="rgba(255, 255, 255, 1)" offset="0%"></stop><stop stop-color="rgba(255, 255, 255, 1)" offset="100%"></stop></linearGradient></defs><path style="transform:translate(0, 0px); opacity:1" fill="url(#sw-gradient-0)" d="M0,207L360,92L720,161L1080,161L1440,184L1800,161L2160,23L2520,46L2880,0L3240,69L3600,23L3960,69L4320,0L4680,23L5040,207L5400,184L5760,184L6120,161L6480,69L6840,207L7200,207L7560,92L7920,92L8280,184L8640,184L8640,230L8280,230L7920,230L7560,230L7200,230L6840,230L6480,230L6120,230L5760,230L5400,230L5040,230L4680,230L4320,230L3960,230L3600,230L3240,230L2880,230L2520,230L2160,230L1800,230L1440,230L1080,230L720,230L360,230L0,230Z"></path><defs><linearGradient id="sw-gradient-1" x1="0" x2="0" y1="1" y2="0"><stop stop-color="rgba(255, 255, 255, 1)" offset="0%"></stop><stop stop-color="rgba(255, 255, 255, 1)" offset="100%"></stop></linearGradient></defs><path style="transform:translate(0, 50px); opacity:0.9" fill="url(#sw-gradient-1)" d="M0,23L360,184L720,184L1080,184L1440,207L1800,46L2160,115L2520,23L2880,184L3240,207L3600,207L3960,46L4320,0L4680,184L5040,161L5400,161L5760,184L6120,115L6480,161L6840,115L7200,161L7560,0L7920,161L8280,161L8640,138L8640,230L8280,230L7920,230L7560,230L7200,230L6840,230L6480,230L6120,230L5760,230L5400,230L5040,230L4680,230L4320,230L3960,230L3600,230L3240,230L2880,230L2520,230L2160,230L1800,230L1440,230L1080,230L720,230L360,230L0,230Z"></path><defs><linearGradient id="sw-gradient-2" x1="0" x2="0" y1="1" y2="0"><stop stop-color="rgba(255, 255, 255, 1)" offset="0%"></stop><stop stop-color="rgba(255, 255, 255, 1)" offset="100%"></stop></linearGradient></defs><path style="transform:translate(0, 100px); opacity:0.8" fill="url(#sw-gradient-2)" d="M0,115L360,184L720,161L1080,46L1440,23L1800,161L2160,207L2520,92L2880,138L3240,23L3600,184L3960,161L4320,184L4680,161L5040,161L5400,92L5760,69L6120,0L6480,92L6840,138L7200,184L7560,0L7920,184L8280,161L8640,207L8640,230L8280,230L7920,230L7560,230L7200,230L6840,230L6480,230L6120,230L5760,230L5400,230L5040,230L4680,230L4320,230L3960,230L3600,230L3240,230L2880,230L2520,230L2160,230L1800,230L1440,230L1080,230L720,230L360,230L0,230Z"></path><defs><linearGradient id="sw-gradient-3" x1="0" x2="0" y1="1" y2="0"><stop stop-color="rgba(255, 255, 255, 1)" offset="0%"></stop><stop stop-color="rgba(255, 255, 255, 1)" offset="100%"></stop></linearGradient></defs><path style="transform:translate(0, 150px); opacity:0.7" fill="url(#sw-gradient-3)" d="M0,69L360,161L720,0L1080,115L1440,138L1800,69L2160,23L2520,184L2880,161L3240,161L3600,184L3960,92L4320,207L4680,69L5040,207L5400,161L5760,23L6120,46L6480,161L6840,184L7200,92L7560,161L7920,161L8280,0L8640,184L8640,230L8280,230L7920,230L7560,230L7200,230L6840,230L6480,230L6120,230L5760,230L5400,230L5040,230L4680,230L4320,230L3960,230L3600,230L3240,230L2880,230L2520,230L2160,230L1800,230L1440,230L1080,230L720,230L360,230L0,230Z"></path></svg>